<svg xmlns="http://www.w3.org/2000/svg" width="480pt" height="290pt" viewBox="0 0 480 290" version="1.1" xmlns:xlink="http://www.w3.org/1999/xlink">
  <g id="surface2" transform="matrix(0.7746268991737538,0,0,0.7746268991737538,-95.93135169261218,55.91790659501834)">
    <path style="stroke:none;fill-rule:evenodd;fill:rgb(90.196078%,90.588235%,90.980392%);fill-opacity:1" d="M 317.550781 161.648438 C 317.484375 162.25 315.917969 162.800781 312.851562 163.300781 C 309.785156 163.800781 305.535156 164.234375 300.101562 164.601562 C 294.667969 165 288.367188 165.300781 281.199219 165.5 C 274.066406 165.734375 266.367188 165.851562 258.101562 165.851562 C 249.832031 165.851562 242.117188 165.734375 234.949219 165.5 C 227.785156 165.300781 221.484375 165 216.050781 164.601562 C 210.617188 164.234375 206.367188 163.800781 203.300781 163.300781 C 200.265625 162.800781 198.714844 162.25 198.648438 161.648438 C 198.714844 161.082031 200.265625 160.550781 203.300781 160.050781 C 206.367188 159.550781 210.617188 159.101562 216.050781 158.699219 C 221.484375 158.332031 227.785156 158.050781 234.949219 157.851562 C 242.117188 157.617188 249.832031 157.5 258.101562 157.5 C 266.367188 157.5 274.082031 157.617188 281.25 157.851562 C 288.382812 158.050781 294.667969 158.351562 300.101562 158.75 C 305.535156 159.117188 309.785156 159.550781 312.851562 160.050781 C 315.917969 160.550781 317.484375 161.082031 317.550781 161.648438 "/>
    <path style="stroke:none;fill-rule:evenodd;fill:rgb(15.294118%,34.117647%,58.823529%);fill-opacity:1" d="M 242.300781 117.300781 C 244.632812 116.535156 246.964844 115.699219 249.300781 114.800781 C 249.300781 114.800781 249.300781 114.800781 249.300781 114.800781 C 249.332031 114.800781 249.332031 114.800781 249.300781 114.800781 C 251.433594 113.964844 253.449219 113.117188 255.351562 112.25 C 255.285156 112.082031 255.214844 111.933594 255.148438 111.800781 C 254.214844 109.800781 253.832031 107.867188 254 106 C 254.167969 104.132812 254.800781 102.484375 255.898438 101.050781 C 257 99.648438 258.5 98.648438 260.398438 98.050781 C 260.5 98.050781 260.582031 98.035156 260.648438 98 C 259.851562 96.367188 258.984375 94.75 258.050781 93.148438 C 258.050781 93.148438 258.050781 93.148438 258.050781 93.148438 C 258.050781 93.148438 258.050781 93.148438 258.050781 93.148438 C 256.984375 91.316406 255.851562 89.601562 254.648438 88 C 254.550781 88.035156 254.417969 88.066406 254.25 88.101562 C 252.449219 88.535156 250.617188 88.632812 248.75 88.398438 C 246.882812 88.167969 245.167969 87.632812 243.601562 86.800781 C 242.035156 86 240.800781 84.964844 239.898438 83.699219 C 238.101562 84.101562 236.300781 84.601562 234.5 85.199219 C 234.5 85.199219 234.5 85.199219 234.5 85.199219 C 234.5 85.199219 234.5 85.199219 234.5 85.199219 C 232.265625 85.933594 230.132812 86.75 228.101562 87.648438 C 228.699219 89.015625 228.816406 90.449219 228.449219 91.949219 C 228.082031 93.449219 227.316406 94.867188 226.148438 96.199219 C 224.984375 97.566406 223.484375 98.699219 221.648438 99.601562 C 222.214844 101.464844 222.917969 103.382812 223.75 105.351562 C 223.75 105.351562 223.75 105.351562 223.75 105.351562 C 223.75 105.351562 223.75 105.351562 223.75 105.351562 C 224.515625 107.214844 225.367188 109.066406 226.300781 110.898438 C 228.398438 110.101562 230.5 109.832031 232.601562 110.101562 C 234.699219 110.367188 236.601562 111.101562 238.300781 112.300781 C 240 113.5 241.316406 115.117188 242.25 117.148438 C 242.25 117.183594 242.265625 117.234375 242.300781 117.300781 M 257.25 115 C 255.183594 115.964844 253 116.898438 250.699219 117.800781 C 250.699219 117.832031 250.699219 117.832031 250.699219 117.800781 C 250.699219 117.832031 250.699219 117.851562 250.699219 117.851562 C 248.199219 118.816406 245.683594 119.699219 243.148438 120.5 C 243.382812 122.300781 243.214844 124.050781 242.648438 125.75 C 242.117188 127.449219 241.25 128.984375 240.050781 130.351562 C 240.617188 130.917969 241.183594 131.449219 241.75 131.949219 C 244.214844 134.214844 246.617188 135.984375 248.949219 137.25 C 249.015625 136.148438 249.265625 135.050781 249.699219 133.949219 C 250.433594 132.183594 251.484375 130.765625 252.851562 129.699219 C 254.214844 128.667969 255.75 128.015625 257.449219 127.75 C 259.148438 127.515625 260.851562 127.765625 262.550781 128.5 C 263.714844 129 264.714844 129.683594 265.550781 130.550781 C 266.285156 127.984375 266.617188 125.035156 266.550781 121.699219 C 266.550781 120.964844 266.535156 120.234375 266.5 119.5 C 264.765625 119.398438 263.101562 118.964844 261.5 118.199219 C 259.933594 117.433594 258.515625 116.367188 257.25 115 M 226.851562 85.800781 C 228.949219 84.898438 231.132812 84.082031 233.398438 83.351562 C 233.398438 83.351562 233.398438 83.351562 233.398438 83.351562 C 235.300781 82.75 237.167969 82.234375 239 81.800781 C 238.699219 80.667969 238.800781 79.617188 239.300781 78.648438 C 239.765625 77.683594 240.582031 76.867188 241.75 76.199219 C 241.515625 76.066406 241.285156 75.933594 241.050781 75.800781 C 238.816406 74.667969 236.667969 73.882812 234.601562 73.449219 C 234.566406 73.949219 234.351562 74.449219 233.949219 74.949219 C 233.285156 75.75 232.367188 76.417969 231.199219 76.949219 C 230.035156 77.515625 228.75 77.917969 227.351562 78.148438 C 225.984375 78.382812 224.632812 78.417969 223.300781 78.25 C 222.734375 78.183594 222.214844 78.066406 221.75 77.898438 C 220.949219 79.167969 220.351562 80.683594 219.949219 82.449219 C 219.882812 82.785156 219.816406 83.148438 219.75 83.550781 C 221.183594 83.449219 222.515625 83.601562 223.75 84 C 224.984375 84.398438 226.015625 85 226.851562 85.800781 M 259.699219 82.199219 C 259.800781 83.132812 259.617188 84.015625 259.148438 84.851562 C 258.683594 85.683594 257.964844 86.398438 257 87 C 258.265625 88.699219 259.484375 90.515625 260.648438 92.449219 C 260.683594 92.449219 260.683594 92.449219 260.648438 92.449219 C 261.683594 94.148438 262.632812 95.882812 263.5 97.648438 C 265.101562 97.683594 266.683594 98.035156 268.25 98.699219 C 269.785156 99.367188 271.167969 100.300781 272.398438 101.5 C 272.734375 101.199219 273.050781 100.882812 273.351562 100.550781 C 274.949219 98.851562 276.015625 97.183594 276.550781 95.550781 C 275.582031 95.382812 274.550781 95.015625 273.449219 94.449219 C 272.015625 93.714844 270.800781 92.832031 269.800781 91.800781 C 268.800781 90.734375 268.082031 89.648438 267.648438 88.550781 C 267.214844 87.417969 267.148438 86.367188 267.449219 85.398438 C 267.617188 84.898438 267.882812 84.484375 268.25 84.148438 C 266.382812 83.449219 264.25 82.898438 261.851562 82.5 C 261.148438 82.367188 260.433594 82.265625 259.699219 82.199219 M 218.199219 122 C 218.300781 120.132812 218.800781 118.382812 219.699219 116.75 C 220.566406 115.082031 221.785156 113.667969 223.351562 112.5 C 222.382812 110.566406 221.515625 108.617188 220.75 106.648438 C 220.75 106.648438 220.75 106.648438 220.75 106.648438 C 220.75 106.648438 220.75 106.648438 220.75 106.648438 C 219.917969 104.617188 219.214844 102.632812 218.648438 100.699219 C 216.949219 101.101562 215.332031 101.199219 213.800781 101 C 212.300781 100.765625 211 100.25 209.898438 99.449219 C 209.566406 99.75 209.25 100.050781 208.949219 100.351562 C 206.785156 102.617188 205.082031 104.816406 203.851562 106.949219 C 204.550781 106.949219 205.25 107.050781 205.949219 107.25 C 207.351562 107.714844 208.433594 108.515625 209.199219 109.648438 C 210 110.785156 210.449219 112.132812 210.550781 113.699219 C 210.648438 115.234375 210.367188 116.816406 209.699219 118.449219 C 209.265625 119.417969 208.75 120.285156 208.148438 121.050781 C 210.515625 121.714844 213.382812 122.050781 216.75 122.050781 C 217.214844 122.050781 217.699219 122.035156 218.199219 122 M 243.648438 92.449219 C 242.351562 92.050781 241.050781 91.917969 239.75 92.050781 C 238.484375 92.214844 237.316406 92.632812 236.25 93.300781 C 235.214844 93.933594 234.417969 94.785156 233.851562 95.851562 C 233.285156 96.984375 233.082031 98.117188 233.25 99.25 C 233.449219 100.417969 233.949219 101.464844 234.75 102.398438 C 235.550781 103.300781 236.617188 104 237.949219 104.5 C 239.316406 104.964844 240.683594 105.117188 242.050781 104.949219 C 243.382812 104.816406 244.582031 104.382812 245.648438 103.648438 C 246.714844 102.949219 247.515625 102.015625 248.050781 100.851562 C 248.75 99.117188 248.683594 97.464844 247.851562 95.898438 C 247.015625 94.332031 245.617188 93.183594 243.648438 92.449219 M 236.851562 66.101562 C 235.683594 66.167969 234.734375 66.367188 234 66.699219 C 233.265625 67.035156 232.917969 67.398438 232.949219 67.800781 C 233.082031 68.234375 233.617188 68.566406 234.550781 68.800781 C 235.484375 69.035156 236.601562 69.101562 237.898438 69 C 239.167969 68.898438 240.148438 68.683594 240.851562 68.351562 C 241.582031 68.015625 241.867188 67.632812 241.699219 67.199219 C 241.464844 66.800781 240.898438 66.5 240 66.300781 C 239.101562 66.066406 238.050781 66 236.851562 66.101562 M 210.050781 74.050781 C 208.984375 74.648438 208.234375 75.265625 207.800781 75.898438 C 207.398438 76.535156 207.398438 77.035156 207.800781 77.398438 C 208.300781 77.765625 209.082031 77.851562 210.148438 77.648438 C 211.214844 77.449219 212.332031 77.035156 213.5 76.398438 C 214.601562 75.734375 215.351562 75.082031 215.75 74.449219 C 216.117188 73.816406 216.050781 73.332031 215.550781 73 C 215.015625 72.699219 214.234375 72.648438 213.199219 72.851562 C 212.167969 73.050781 211.117188 73.449219 210.050781 74.050781 M 186.300781 108.449219 C 186.234375 109.714844 186.515625 110.648438 187.148438 111.25 C 187.816406 111.882812 188.714844 112.015625 189.851562 111.648438 C 191.015625 111.183594 192.015625 110.351562 192.851562 109.148438 C 193.683594 107.984375 194.148438 106.714844 194.25 105.351562 C 194.316406 104.050781 193.984375 103.132812 193.25 102.601562 C 192.550781 102.035156 191.648438 101.984375 190.550781 102.449219 C 189.449219 102.917969 188.515625 103.714844 187.75 104.851562 C 186.949219 105.984375 186.464844 107.183594 186.300781 108.449219 M 194.199219 140.101562 C 195.066406 141.433594 196.148438 142.199219 197.449219 142.398438 C 198.785156 142.632812 200.015625 142.25 201.148438 141.25 C 201.917969 140.550781 202.464844 139.699219 202.800781 138.699219 C 203.132812 137.734375 203.25 136.714844 203.148438 135.648438 C 203.050781 134.582031 202.699219 133.601562 202.101562 132.699219 C 201.199219 131.398438 200.082031 130.667969 198.75 130.5 C 197.449219 130.367188 196.234375 130.816406 195.101562 131.851562 C 194.066406 132.917969 193.464844 134.234375 193.300781 135.800781 C 193.132812 137.332031 193.433594 138.765625 194.199219 140.101562 M 246.449219 163 C 248.214844 162.699219 249.617188 161.882812 250.648438 160.550781 C 251.683594 159.25 252.117188 157.734375 251.949219 156 C 251.714844 154.234375 250.917969 152.851562 249.550781 151.851562 C 248.214844 150.851562 246.632812 150.464844 244.800781 150.699219 C 243 151 241.566406 151.832031 240.5 153.199219 C 239.464844 154.535156 239.050781 156.082031 239.25 157.851562 C 239.550781 159.550781 240.382812 160.882812 241.75 161.851562 C 243.082031 162.816406 244.648438 163.199219 246.449219 163 M 282.050781 146.148438 C 283.148438 145.050781 283.800781 143.714844 284 142.148438 C 284.167969 140.582031 283.851562 139.132812 283.050781 137.800781 C 282.183594 136.464844 281.066406 135.699219 279.699219 135.5 C 278.367188 135.300781 277.101562 135.699219 275.898438 136.699219 C 275.101562 137.433594 274.515625 138.300781 274.148438 139.300781 C 273.816406 140.300781 273.699219 141.332031 273.800781 142.398438 C 273.898438 143.464844 274.25 144.449219 274.851562 145.351562 C 275.785156 146.648438 276.917969 147.367188 278.25 147.5 C 279.617188 147.667969 280.882812 147.214844 282.050781 146.148438 M 292.601562 101.148438 C 292.132812 99.949219 291.433594 98.898438 290.5 98 C 289.566406 97.101562 288.617188 96.550781 287.648438 96.351562 C 286.648438 96.214844 285.964844 96.515625 285.601562 97.25 C 285.199219 97.949219 285.199219 98.933594 285.601562 100.199219 C 286.066406 101.535156 286.800781 102.667969 287.800781 103.601562 C 288.765625 104.535156 289.765625 105.066406 290.800781 105.199219 C 291.734375 105.265625 292.367188 104.917969 292.699219 104.148438 C 293.035156 103.382812 293 102.382812 292.601562 101.148438 M 275.800781 77.949219 C 274.867188 77.214844 273.882812 76.648438 272.851562 76.25 C 271.785156 75.851562 270.898438 75.714844 270.199219 75.851562 C 269.5 76.015625 269.234375 76.417969 269.398438 77.050781 C 269.566406 77.714844 270.117188 78.449219 271.050781 79.25 C 272.050781 80.050781 273.101562 80.648438 274.199219 81.050781 C 275.300781 81.449219 276.199219 81.550781 276.898438 81.351562 C 277.5 81.117188 277.699219 80.683594 277.5 80.050781 C 277.300781 79.417969 276.734375 78.714844 275.800781 77.949219 M 219 127.050781 C 218.765625 126.484375 218.582031 125.898438 218.449219 125.300781 C 217.816406 125.332031 217.183594 125.351562 216.550781 125.351562 C 212.050781 125.351562 208.351562 124.734375 205.449219 123.5 C 204.316406 124.167969 203.148438 124.582031 201.949219 124.75 C 200.75 124.917969 199.601562 124.765625 198.5 124.300781 C 197.234375 123.734375 196.25 122.867188 195.550781 121.699219 C 194.851562 120.535156 194.484375 119.214844 194.449219 117.75 C 194.382812 116.25 194.683594 114.734375 195.351562 113.199219 C 195.949219 111.898438 196.714844 110.765625 197.648438 109.800781 C 198.617188 108.832031 199.667969 108.117188 200.800781 107.648438 C 202.167969 104.75 204.300781 101.832031 207.199219 98.898438 C 207.566406 98.5 207.949219 98.132812 208.351562 97.800781 C 208.050781 97.332031 207.816406 96.832031 207.648438 96.300781 C 207.148438 94.535156 207.332031 92.734375 208.199219 90.898438 C 206.101562 90.5 204.066406 90.183594 202.101562 89.949219 C 201.300781 90.851562 200.351562 91.632812 199.25 92.300781 C 197.714844 93.167969 196.417969 93.535156 195.351562 93.398438 C 194.285156 93.300781 193.683594 92.714844 193.550781 91.648438 C 193.484375 90.648438 193.882812 89.550781 194.75 88.351562 C 195.617188 87.117188 196.734375 86.066406 198.101562 85.199219 C 199.535156 84.367188 200.800781 83.964844 201.898438 84 C 203 84.035156 203.667969 84.515625 203.898438 85.449219 C 204.066406 86.148438 203.933594 86.949219 203.5 87.851562 C 205.464844 88.082031 207.5 88.367188 209.601562 88.699219 C 210.933594 87.066406 212.699219 85.75 214.898438 84.75 C 215.632812 84.449219 216.351562 84.199219 217.050781 84 C 217.117188 83.566406 217.199219 83.148438 217.300781 82.75 C 217.867188 80.449219 218.785156 78.5 220.050781 76.898438 C 219.582031 76.398438 219.382812 75.851562 219.449219 75.25 C 219.515625 74.617188 219.867188 73.984375 220.5 73.351562 C 221.167969 72.683594 222.050781 72.101562 223.148438 71.601562 C 224.25 71.101562 225.433594 70.75 226.699219 70.550781 C 227.933594 70.316406 229.148438 70.25 230.351562 70.351562 C 232.285156 70.582031 233.582031 71.132812 234.25 72 C 237.015625 72.332031 239.882812 73.25 242.851562 74.75 C 243.183594 74.917969 243.515625 75.101562 243.851562 75.300781 C 244.214844 75.167969 244.582031 75.066406 244.949219 75 C 247.148438 74.601562 249.351562 74.683594 251.550781 75.25 C 252.25 74.050781 252.933594 72.964844 253.601562 72 C 252.464844 71.601562 251.582031 71.117188 250.949219 70.550781 C 250.25 69.851562 250.101562 69.265625 250.5 68.800781 C 250.898438 68.332031 251.75 68.082031 253.050781 68.050781 C 254.351562 68.015625 255.699219 68.214844 257.101562 68.648438 C 258.464844 69.050781 259.566406 69.566406 260.398438 70.199219 C 261.234375 70.898438 261.515625 71.5 261.25 72 C 260.949219 72.535156 260.148438 72.832031 258.851562 72.898438 C 257.949219 72.964844 257 72.898438 256 72.699219 C 255.398438 73.734375 254.75 74.851562 254.050781 76.050781 C 255.851562 76.816406 257.285156 77.867188 258.351562 79.199219 C 258.683594 79.601562 258.949219 79.984375 259.148438 80.351562 C 259.949219 80.449219 260.75 80.566406 261.550781 80.699219 C 264.816406 81.265625 267.699219 82.117188 270.199219 83.25 C 270.964844 83.117188 271.851562 83.132812 272.851562 83.300781 C 273.816406 83.5 274.816406 83.882812 275.851562 84.449219 C 277.75 85.484375 279.25 86.800781 280.351562 88.398438 C 281.449219 89.964844 281.917969 91.449219 281.75 92.851562 C 281.484375 94.214844 280.667969 95.082031 279.300781 95.449219 C 278.964844 97.816406 277.734375 100.199219 275.601562 102.601562 C 275.199219 103.035156 274.785156 103.464844 274.351562 103.898438 C 274.550781 104.234375 274.75 104.582031 274.949219 104.949219 C 275.550781 106.148438 275.949219 107.351562 276.148438 108.550781 C 276.351562 109.75 276.351562 110.917969 276.148438 112.050781 C 278.648438 113.351562 281.082031 114.683594 283.449219 116.050781 C 283.917969 114.882812 284.699219 114.082031 285.800781 113.648438 C 287.101562 113.183594 288.433594 113.382812 289.800781 114.25 C 291.132812 115.082031 292.183594 116.398438 292.949219 118.199219 C 293.617188 120 293.785156 121.699219 293.449219 123.300781 C 293.082031 124.933594 292.300781 126.082031 291.101562 126.75 C 289.734375 127.382812 288.351562 127.300781 286.949219 126.5 C 285.515625 125.667969 284.398438 124.300781 283.601562 122.398438 C 283.101562 121.167969 282.867188 119.949219 282.898438 118.75 C 280.433594 117.382812 277.882812 116.015625 275.25 114.648438 C 274.316406 116.515625 272.800781 117.898438 270.699219 118.800781 C 270.300781 118.933594 269.898438 119.050781 269.5 119.148438 C 269.566406 120.082031 269.617188 121 269.648438 121.898438 C 269.714844 126.566406 269.101562 130.582031 267.800781 133.949219 C 268.265625 135.148438 268.5 136.398438 268.5 137.699219 C 268.535156 139 268.300781 140.285156 267.800781 141.550781 C 267.101562 143.285156 266.082031 144.683594 264.75 145.75 C 263.417969 146.816406 261.917969 147.5 260.25 147.800781 C 258.582031 148.066406 256.898438 147.882812 255.199219 147.25 C 253.832031 146.683594 252.683594 145.898438 251.75 144.898438 C 250.785156 143.867188 250.066406 142.699219 249.601562 141.398438 C 246.234375 140 242.832031 137.714844 239.398438 134.550781 C 238.734375 133.917969 238.066406 133.265625 237.398438 132.601562 C 236.800781 133.035156 236.132812 133.382812 235.398438 133.648438 C 234.066406 134.214844 232.699219 134.550781 231.300781 134.648438 C 229.933594 134.75 228.582031 134.632812 227.25 134.300781 C 226.015625 137.433594 224.785156 140.566406 223.550781 143.699219 C 224.816406 144.566406 225.785156 145.75 226.449219 147.25 C 227.015625 148.648438 227.234375 150.035156 227.101562 151.398438 C 226.933594 152.800781 226.449219 154.035156 225.648438 155.101562 C 224.851562 156.199219 223.785156 157.015625 222.449219 157.550781 C 221.148438 158.050781 219.832031 158.183594 218.5 157.949219 C 217.199219 157.714844 216 157.183594 214.898438 156.351562 C 213.832031 155.515625 213 154.433594 212.398438 153.101562 C 211.832031 151.734375 211.617188 150.367188 211.75 149 C 211.882812 147.667969 212.316406 146.449219 213.050781 145.351562 C 213.816406 144.25 214.832031 143.417969 216.101562 142.851562 C 217.535156 142.25 218.984375 142.082031 220.449219 142.351562 C 221.648438 139.25 222.882812 136.148438 224.148438 133.050781 C 222.984375 132.382812 221.964844 131.550781 221.101562 130.550781 C 220.199219 129.515625 219.5 128.351562 219 127.050781 "/>
  </g>
  <g id="surface4">
    <text style="fill:rgb(65,64,66)" font-family="Arimo" font-size="54" transform="matrix(1,0,0,1,142.5,164)" xml:space="preserve"><![CDATA[CHARISMA]]></text>
  </g>
</svg>